<svg id="Capa_1" enable-background="new 0 0 512 512" height="512" viewBox="0 0 512 512" width="512" xmlns="http://www.w3.org/2000/svg"><g><g><path d="m331.852 478.699-25.284-85.333h-101.136l-25.284 85.333z" fill="#d0cee7"/></g><g><path d="m382.959 512h-253.918c-4.598 0-8.325-3.727-8.325-8.325v-16.65c0-4.598 3.727-8.325 8.325-8.325h253.919c4.598 0 8.325 3.727 8.325 8.325v16.65c0 4.598-3.728 8.325-8.326 8.325z" fill="#efecef"/></g><g><path d="m382.959 478.699h-35.844c4.598 0 8.325 3.727 8.325 8.325v16.65c0 4.598-3.727 8.325-8.325 8.325h35.844c4.598 0 8.325-3.727 8.325-8.325v-16.65c.001-4.597-3.727-8.325-8.325-8.325z" fill="#dddaec"/></g><g><path d="m512 330.927h-512v-299.707c0-17.243 13.977-31.22 31.22-31.22h449.56c17.243 0 31.22 13.977 31.22 31.22z" fill="#bed8fb"/></g><g><path d="m480.78 0h-32.035c17.242 0 31.22 13.977 31.22 31.22v299.707h32.035v-299.707c0-17.243-13.977-31.22-31.22-31.22z" fill="#9dc6fb"/></g><g><path d="m480.78 393.366h-449.56c-17.242 0-31.22-13.977-31.22-31.22v-31.22h512v31.22c0 17.242-13.977 31.22-31.22 31.22z" fill="#efecef"/></g><g><path d="m480.373 330.927v31.22c0 17.242-13.977 31.22-31.22 31.22h31.627c17.242 0 31.22-13.977 31.22-31.22v-31.22z" fill="#dddaec"/></g><g><g><path d="m233.106 297.626h-33.301v-158.263c0-4.552 3.69-8.241 8.241-8.241h16.818c4.552 0 8.241 3.69 8.241 8.241v158.263z" fill="#ffe07d"/></g><g><path d="m166.504 297.626h-33.301v-116.637c0-4.552 3.69-8.241 8.241-8.241h16.818c4.552 0 8.241 3.69 8.241 8.241v116.637z" fill="#b3e59f"/></g><g><path d="m299.707 297.626h-33.301v-116.637c0-4.552 3.69-8.241 8.241-8.241h16.818c4.552 0 8.241 3.69 8.241 8.241v116.637z" fill="#e4936b"/></g><g><path d="m99.902 297.626h-33.3v-220.702c0-4.552 3.69-8.241 8.241-8.241h16.818c4.552 0 8.241 3.69 8.241 8.241z" fill="#e27f86"/></g></g><g><path d="m333.008 305.126h-299.707c-4.142 0-7.5-3.357-7.5-7.5v-233.105c0-4.143 3.358-7.5 7.5-7.5s7.5 3.357 7.5 7.5v225.605h292.208c4.142 0 7.5 3.357 7.5 7.5s-3.359 7.5-7.501 7.5z" fill="#d3effd"/></g><g><path d="m478.699 25.574h-120.715c-4.267 0-7.726 3.459-7.726 7.726v33.301c0 4.268 3.459 7.726 7.726 7.726h120.715c4.267 0 7.726-3.459 7.726-7.726v-33.3c.001-4.268-3.459-7.727-7.726-7.727z" fill="#5392f9"/></g><g><path d="m478.699 256.599h-83.252c-4.267 0-7.726 3.459-7.726 7.726v33.301c0 4.268 3.459 7.726 7.726 7.726h83.252c4.267 0 7.726-3.459 7.726-7.726v-33.301c.001-4.268-3.459-7.726-7.726-7.726z" fill="#e27f86"/></g><g><path d="m478.699 107.402h-66.602c-4.142 0-7.5-3.357-7.5-7.5s3.358-7.5 7.5-7.5h66.602c4.142 0 7.5 3.357 7.5 7.5s-3.358 7.5-7.5 7.5z" fill="#d3effd"/></g><g><path d="m378.797 107.402h-20.813c-4.142 0-7.5-3.357-7.5-7.5s3.358-7.5 7.5-7.5h20.813c4.142 0 7.5 3.357 7.5 7.5s-3.358 7.5-7.5 7.5z" fill="#d3effd"/></g><g><path d="m478.699 140.703h-20.813c-4.142 0-7.5-3.357-7.5-7.5s3.358-7.5 7.5-7.5h20.813c4.142 0 7.5 3.357 7.5 7.5s-3.358 7.5-7.5 7.5z" fill="#d3effd"/></g><g><path d="m424.585 140.703h-66.602c-4.142 0-7.5-3.357-7.5-7.5s3.358-7.5 7.5-7.5h66.602c4.142 0 7.5 3.357 7.5 7.5s-3.357 7.5-7.5 7.5z" fill="#d3effd"/></g><g><path d="m478.699 174.004h-120.715c-4.142 0-7.5-3.357-7.5-7.5s3.358-7.5 7.5-7.5h120.715c4.142 0 7.5 3.357 7.5 7.5s-3.358 7.5-7.5 7.5z" fill="#d3effd"/></g><g><path d="m478.699 207.305h-79.089c-4.142 0-7.5-3.357-7.5-7.5s3.358-7.5 7.5-7.5h79.089c4.142 0 7.5 3.357 7.5 7.5s-3.358 7.5-7.5 7.5z" fill="#d3effd"/></g></g></svg>