<svg id="Capa_1" enable-background="new 0 0 512 512" height="512" viewBox="0 0 512 512" width="512" xmlns="http://www.w3.org/2000/svg"><g><g><g><g><path d="m372.481 65.557v172.069c0 12.871-10.425 23.297-23.297 23.297h-186.373c-12.871 0-23.297-10.425-23.297-23.297v-214.329c.001-12.872 10.426-23.297 23.297-23.297h144.113c1.293 0 2.563.105 3.821.326 4.764.78 9.191 3.04 12.65 6.5l42.26 42.26c3.46 3.46 5.719 7.886 6.5 12.65.222 1.258.326 2.528.326 3.821z" fill="#ffe07d"/></g><g><path d="m372.155 61.736c-.78-4.764-3.04-9.191-6.5-12.65l-42.26-42.26c-3.46-3.46-7.886-5.719-12.65-6.5-1.258-.221-2.528-.326-3.82-.326h-26.465v50.088c0 23.16 18.775 41.934 41.934 41.934h8.154c6.433 0 11.648 5.215 11.648 11.648v133.956c0 12.871-10.425 23.297-23.297 23.297h30.286c12.866 0 23.297-10.43 23.297-23.297v-172.069c-.001-1.293-.105-2.563-.327-3.821z" fill="#ffd064"/></g><g><path d="m335.207 119.324h-83.868c-4.142 0-7.5-3.357-7.5-7.5s3.358-7.5 7.5-7.5h83.868c4.142 0 7.5 3.357 7.5 7.5s-3.358 7.5-7.5 7.5z" fill="#62a4fb"/></g><g><path d="m214.064 119.324h-37.275c-4.142 0-7.5-3.357-7.5-7.5s3.358-7.5 7.5-7.5h37.275c4.142 0 7.5 3.357 7.5 7.5s-3.358 7.5-7.5 7.5z" fill="#62a4fb"/></g><g><path d="m335.207 156.599h-37.274c-4.142 0-7.5-3.357-7.5-7.5s3.358-7.5 7.5-7.5h37.274c4.142 0 7.5 3.357 7.5 7.5s-3.358 7.5-7.5 7.5z" fill="#62a4fb"/></g><g><path d="m255.998 156.599h-79.209c-4.142 0-7.5-3.357-7.5-7.5s3.358-7.5 7.5-7.5h79.209c4.142 0 7.5 3.357 7.5 7.5s-3.358 7.5-7.5 7.5z" fill="#62a4fb"/></g><g><path d="m372.155 61.736h-49.762c-6.433 0-11.648-5.215-11.648-11.648v-49.762c4.764.78 9.191 3.04 12.65 6.5l42.26 42.26c3.46 3.46 5.72 7.886 6.5 12.65z" fill="#ffc250"/></g></g><g><g><path d="m400.313 229.041c.608-2.955.929-6.016.929-9.151 0-24.941-20.219-45.16-45.16-45.16-7.083 0-13.782 1.634-19.748 4.54-21.467-18.784-49.57-30.172-80.335-30.172-50.056 0-93.066 30.137-111.897 73.253-46.803.447-84.609 38.509-84.609 85.417 0 47.186 38.252 85.437 85.437 85.437h222.137c47.186 0 85.437-38.252 85.437-85.437 0-35.393-21.521-65.759-52.191-78.727z" fill="#e6f7fe"/></g><g><path d="m144.929 393.206h221.029c47.099 0 86.649-38.531 86.546-85.629-.078-35.311-21.577-65.591-52.191-78.536.608-2.955.929-6.016.929-9.151 0-19.653-12.558-36.366-30.085-42.573-2.788 26.644-11.951 54.772-27.051 81.998-3.361 6.06-9.864 9.556-16.793 9.53-.035 0-.069 0-.104 0-4.103 0-8.239.916-12.094 2.798l-10.985 5.365-3.974-11.56c-3.828-11.136-14.304-18.613-26.08-18.613h-36.156c-11.775 0-22.251 7.477-26.079 18.612l-3.974 11.561-10.985-5.365c-3.855-1.882-7.991-2.798-12.094-2.798-7.157 0-14.215 2.786-19.508 8.078l-25.565 25.566c-8.326 8.326-10.447 21.021-5.28 31.601l5.364 10.985-11.561 3.975c-11.135 3.828-18.612 14.304-18.612 26.079v10.438c10.764 4.892 22.709 7.639 35.303 7.639z" fill="#d3effd"/></g></g><g><g><path d="m339.544 427.749c1.338-3.226 3.996-5.723 7.298-6.858l20.997-7.218c4.16-1.43 6.953-5.344 6.953-9.742v-21.45c0-4.399-2.793-8.312-6.953-9.742l-21.115-7.258c-3.228-1.109-5.825-3.55-7.132-6.702l-.089-.215c-1.339-3.227-1.227-6.873.306-10.012l9.746-19.955c1.93-3.953 1.138-8.695-1.972-11.805l-15.168-15.168c-3.11-3.11-7.853-3.903-11.805-1.972l-19.955 9.746c-3.139 1.533-6.786 1.645-10.012.306l-.215-.089c-3.153-1.308-5.593-3.905-6.702-7.132l-7.258-21.115c-1.43-4.16-5.343-6.953-9.742-6.953h-21.45c-4.399 0-8.312 2.793-9.742 6.953l-7.258 21.115c-1.109 3.228-3.55 5.825-6.702 7.132l-.215.089c-3.227 1.339-6.873 1.227-10.012-.306l-19.955-9.746c-3.953-1.93-8.695-1.138-11.805 1.972l-15.168 15.168c-3.11 3.11-3.903 7.853-1.972 11.805l9.746 19.955c1.533 3.139 1.644 6.786.306 10.012l-.041.1c-1.338 3.226-3.996 5.723-7.298 6.858l-20.997 7.218c-4.16 1.43-6.953 5.344-6.953 9.742v21.45c0 4.399 2.793 8.312 6.953 9.742l21.115 7.258c3.228 1.109 5.825 3.55 7.132 6.702l.089.215c1.339 3.227 1.227 6.873-.306 10.012l-9.746 19.955c-1.93 3.953-1.138 8.695 1.972 11.805l15.168 15.168c3.11 3.11 7.853 3.903 11.805 1.972l19.955-9.746c3.139-1.533 6.786-1.644 10.012-.306l.1.041c3.226 1.338 5.723 3.996 6.858 7.298l7.218 20.997c1.43 4.16 5.343 6.953 9.742 6.953h21.45c4.399 0 8.312-2.793 9.742-6.953l7.218-20.997c1.135-3.303 3.632-5.96 6.858-7.298l.21-.087c3.157-1.31 6.724-1.201 9.795.299l20.062 9.798c3.953 1.93 8.695 1.138 11.805-1.972l15.168-15.168c3.11-3.11 3.903-7.853 1.972-11.805l-9.746-19.955c-1.533-3.139-1.644-6.785-.306-10.012zm-83.546 17.106c-28.525 0-51.65-23.124-51.65-51.65s23.124-51.65 51.65-51.65 51.65 23.124 51.65 51.65-23.125 51.65-51.65 51.65z" fill="#62a4fb"/></g><g><path d="m339.544 427.749c1.338-3.226 3.996-5.723 7.298-6.858l20.997-7.218c4.16-1.43 6.953-5.344 6.953-9.742v-21.45c0-4.399-2.793-8.312-6.953-9.742l-21.115-7.258c-3.228-1.109-5.825-3.55-7.132-6.702l-.089-.215c-1.339-3.227-1.227-6.873.306-10.012l9.746-19.955c1.93-3.953 1.138-8.695-1.972-11.805l-15.069-15.069c-.341 23.022-9.913 49.814-27.475 75.277 2.083 6.304 3.004 13.137 2.452 20.258-1.977 25.516-22.779 45.968-48.326 47.504-8.56.515-16.694-1.075-23.959-4.274-25.506 13.909-51.238 19.745-72.268 16.315l-.496 1.016c-1.93 3.953-1.138 8.695 1.972 11.805l15.168 15.168c3.11 3.11 7.853 3.903 11.805 1.972l19.955-9.746c3.139-1.533 6.786-1.644 10.012-.306l.1.041c3.226 1.338 5.723 3.996 6.858 7.298l7.218 20.997c1.43 4.16 5.343 6.953 9.742 6.953h21.45c4.399 0 8.312-2.793 9.742-6.953l7.218-20.997c1.135-3.303 3.632-5.96 6.858-7.298l.21-.087c3.157-1.31 6.724-1.201 9.795.299l20.062 9.798c3.953 1.93 8.695 1.138 11.805-1.972l15.168-15.168c3.11-3.11 3.903-7.853 1.972-11.805l-9.746-19.955c-1.533-3.139-1.644-6.785-.306-10.012z" fill="#5392f9"/></g></g></g><g><path d="m276.804 29.548h-100.015c-4.267 0-7.726 3.459-7.726 7.726v37.275c0 4.268 3.459 7.726 7.726 7.726h100.015c4.267 0 7.726-3.459 7.726-7.726v-37.274c0-4.268-3.459-7.727-7.726-7.727z" fill="#b3e59f"/></g><g><path d="m102.585 165.131h-30.955v-75.925l7.623 7.623c1.509 1.509 3.486 2.264 5.463 2.264s3.955-.755 5.463-2.263c3.018-3.017 3.018-7.909 0-10.927l-20.812-20.812c-1.449-1.45-3.414-2.264-5.463-2.264s-4.015.814-5.463 2.264l-20.813 20.813c-3.018 3.017-3.018 7.909 0 10.927 3.017 3.016 7.909 3.017 10.927-.001l7.623-7.623v83.651c0 4.268 3.459 7.726 7.726 7.726h38.681c4.267 0 7.726-3.459 7.726-7.726s-3.459-7.727-7.726-7.727z" fill="#e4936b"/></g><g><path d="m474.372 146.58c-3.017-3.016-7.909-3.016-10.927 0l-7.623 7.623v-83.65c0-4.268-3.459-7.726-7.726-7.726h-38.681c-4.267 0-7.726 3.459-7.726 7.726 0 4.268 3.459 7.726 7.726 7.726h30.954v75.924l-7.623-7.623c-3.017-3.016-7.909-3.016-10.927 0-3.018 3.018-3.018 7.909 0 10.928l20.813 20.813c1.509 1.508 3.486 2.263 5.463 2.263s3.955-.755 5.463-2.263l20.813-20.813c3.019-3.018 3.019-7.909.001-10.928z" fill="#e27f86"/></g></g></svg>