<svg id="Capa_1" enable-background="new 0 0 512 512" height="512" viewBox="0 0 512 512" width="512" xmlns="http://www.w3.org/2000/svg"><g><g><ellipse cx="256" cy="256" fill="#b3e59f" rx="191.48" ry="191.393"/><path d="m365.998 99.33c21.884 31.112 34.739 69.027 34.739 109.948 0 105.703-85.728 191.393-191.48 191.393-40.939 0-78.872-12.85-109.998-34.724 34.645 49.253 91.928 81.445 156.74 81.445 105.751 0 191.48-85.69 191.48-191.393.001-64.782-32.206-122.039-81.481-156.669z" fill="#95d6a4"/></g><g><g><path d="m164.635 486.038c-.979 0-1.973-.187-2.935-.582-2.592-1.065-5.218-2.197-7.806-3.366-3.889-1.756-5.617-6.331-3.86-10.218 1.758-3.887 6.333-5.614 10.222-3.858 2.428 1.096 4.89 2.158 7.319 3.157 3.947 1.621 5.831 6.134 4.208 10.079-1.226 2.983-4.108 4.788-7.148 4.788z" fill="#efecef"/></g><g><path d="m256 504.005c-2.913 0-5.875-.051-8.802-.154-4.265-.148-7.602-3.724-7.453-7.986s3.751-7.623 7.99-7.449c5.506.191 11.065.189 16.495.001.092-.004.183-.005.275-.005 4.142 0 7.57 3.282 7.716 7.453.149 4.263-3.187 7.839-7.452 7.987-2.897.101-5.847.153-8.769.153zm42.344-3.72c-3.674 0-6.932-2.629-7.598-6.371-.747-4.199 2.052-8.209 6.254-8.956 5.391-.959 10.813-2.124 16.115-3.461 4.137-1.043 8.338 1.461 9.382 5.597 1.045 4.135-1.462 8.334-5.6 9.378-5.656 1.428-11.44 2.67-17.191 3.693-.456.081-.913.12-1.362.12zm-84.72-.005c-.45 0-.905-.039-1.364-.121-5.754-1.025-11.536-2.267-17.187-3.694-4.137-1.044-6.644-5.243-5.6-9.378 1.045-4.136 5.242-6.647 9.383-5.597 5.297 1.336 10.718 2.502 16.113 3.462 4.201.748 7 4.758 6.252 8.958-.666 3.742-3.924 6.37-7.597 6.37z" fill="#efecef"/></g><g><path d="m347.365 486.038c-3.039 0-5.922-1.804-7.149-4.789-1.623-3.944.262-8.457 4.208-10.079 2.428-.998 4.89-2.06 7.32-3.157 3.888-1.756 8.465-.027 10.221 3.859 1.757 3.887.028 8.461-3.861 10.217-2.588 1.168-5.214 2.301-7.805 3.366-.96.396-1.955.583-2.934.583z" fill="#efecef"/></g></g><g><g><path d="m157.08 44.673c-2.943 0-5.755-1.69-7.046-4.545-1.757-3.887-.029-8.462 3.86-10.218 2.588-1.168 5.214-2.301 7.806-3.366 3.948-1.624 8.462.26 10.084 4.206 1.623 3.945-.262 8.458-4.208 10.079-2.429.999-4.891 2.06-7.319 3.157-1.032.466-2.113.687-3.177.687z" fill="#efecef"/></g><g><path d="m196.96 30.747c-3.455 0-6.601-2.333-7.486-5.834-1.044-4.135 1.462-8.334 5.6-9.378 5.65-1.427 11.433-2.669 17.187-3.694 4.201-.746 8.214 2.049 8.962 6.249.748 4.199-2.051 8.21-6.252 8.958-5.395.96-10.816 2.126-16.113 3.462-.636.16-1.272.237-1.898.237zm118.052-.007c-.627 0-1.263-.076-1.897-.237-5.302-1.337-10.723-2.502-16.115-3.461-4.201-.747-7.001-4.756-6.254-8.956.747-4.199 4.764-7.001 8.96-6.251 5.751 1.023 11.535 2.265 17.191 3.692 4.138 1.044 6.645 5.243 5.6 9.378-.884 3.503-4.03 5.835-7.485 5.835zm-67.55-7.15c-4.143 0-7.571-3.283-7.717-7.454-.148-4.263 3.189-7.839 7.453-7.986 5.862-.205 11.785-.204 17.571-.001 4.265.149 7.601 3.725 7.452 7.987-.146 4.171-3.574 7.453-7.716 7.453-.092 0-.183-.001-.275-.005-5.43-.189-10.989-.191-16.495.001-.091.004-.182.005-.273.005z" fill="#efecef"/></g><g><path d="m354.92 44.673c-1.063 0-2.143-.22-3.175-.687-2.43-1.096-4.892-2.159-7.32-3.157-3.947-1.622-5.831-6.135-4.208-10.079 1.623-3.946 6.141-5.827 10.083-4.206 2.591 1.065 5.217 2.197 7.805 3.366 3.889 1.756 5.618 6.33 3.861 10.217-1.29 2.855-4.103 4.546-7.046 4.546z" fill="#efecef"/></g></g><g><g><path d="m478.417 172.404c-3.039 0-5.922-1.804-7.149-4.789-.998-2.426-2.061-4.888-3.158-7.317-1.757-3.887-.028-8.461 3.861-10.217 3.888-1.757 8.465-.027 10.221 3.859 1.169 2.586 2.302 5.212 3.367 7.801 1.623 3.944-.262 8.457-4.208 10.079-.961.397-1.956.584-2.934.584z" fill="#efecef"/></g><g><path d="m489.096 322.704c-.627 0-1.263-.076-1.897-.237-4.138-1.044-6.645-5.243-5.6-9.378 1.338-5.299 2.503-10.719 3.463-16.107.747-4.199 4.764-7 8.96-6.251 4.201.747 7.001 4.756 6.254 8.956-1.023 5.749-2.266 11.53-3.694 17.183-.886 3.501-4.032 5.834-7.486 5.834zm7.151-50.484c-.092 0-.183-.002-.275-.005-4.265-.149-7.601-3.725-7.452-7.987.095-2.718.143-5.486.143-8.228 0-2.734-.048-5.514-.144-8.261-.149-4.263 3.188-7.839 7.453-7.986 4.283-.188 7.842 3.188 7.99 7.449.103 2.925.154 5.886.154 8.798 0 2.92-.051 5.87-.153 8.767-.145 4.171-3.574 7.453-7.716 7.453zm-3.593-50.861c-3.673 0-6.931-2.629-7.598-6.369-.961-5.393-2.127-10.812-3.464-16.106-1.045-4.135 1.462-8.334 5.6-9.378 4.136-1.044 8.338 1.461 9.382 5.597 1.428 5.647 2.67 11.427 3.695 17.178.748 4.199-2.05 8.21-6.252 8.958-.458.08-.913.12-1.363.12z" fill="#efecef"/></g><g><path d="m475.146 362.605c-1.063 0-2.143-.22-3.175-.687-3.889-1.756-5.618-6.33-3.861-10.217 1.097-2.428 2.16-4.89 3.158-7.317 1.623-3.945 6.14-5.826 10.083-4.206 3.947 1.622 5.831 6.135 4.208 10.079-1.065 2.589-2.198 5.215-3.367 7.801-1.29 2.856-4.102 4.547-7.046 4.547z" fill="#efecef"/></g></g><g><g><path d="m36.854 362.605c-2.943 0-5.754-1.689-7.045-4.543-1.161-2.567-2.295-5.193-3.369-7.802-1.623-3.945.26-8.458 4.206-10.081 3.947-1.62 8.462.26 10.085 4.204 1.007 2.448 2.07 4.909 3.158 7.316 1.758 3.887.031 8.462-3.857 10.219-1.032.466-2.114.687-3.178.687z" fill="#efecef"/></g><g><path d="m22.911 322.732c-3.455 0-6.601-2.333-7.485-5.833-1.429-5.655-2.673-11.435-3.695-17.181-.748-4.198 2.052-8.209 6.253-8.956s8.213 2.051 8.96 6.251c.959 5.385 2.124 10.803 3.464 16.103 1.045 4.135-1.461 8.334-5.599 9.379-.635.16-1.272.237-1.898.237zm-7.157-50.48c-4.142 0-7.57-3.282-7.717-7.452-.102-2.907-.153-5.868-.154-8.799 0-2.916.051-5.866.152-8.767.149-4.263 3.718-7.628 7.99-7.449 4.265.148 7.601 3.724 7.453 7.986-.095 2.723-.143 5.491-.143 8.229.001 2.751.049 5.531.145 8.259.149 4.263-3.187 7.84-7.452 7.988-.091.003-.182.005-.274.005zm3.587-50.862c-.449 0-.904-.039-1.362-.121-4.201-.746-7.002-4.756-6.255-8.956 1.022-5.744 2.265-11.525 3.693-17.182 1.044-4.135 5.243-6.646 9.382-5.598 4.137 1.043 6.645 5.242 5.601 9.377-1.339 5.304-2.504 10.724-3.462 16.108-.665 3.742-3.923 6.372-7.597 6.372z" fill="#efecef"/></g><g><path d="m33.583 172.404c-.979 0-1.974-.187-2.936-.582-3.947-1.623-5.829-6.136-4.206-10.081 1.074-2.609 2.208-5.235 3.369-7.802 1.758-3.887 6.336-5.61 10.223-3.855 3.888 1.757 5.615 6.332 3.857 10.219-1.089 2.406-2.151 4.868-3.158 7.316-1.228 2.981-4.11 4.785-7.149 4.785z" fill="#efecef"/></g></g><path d="m374.05 162.493h25.155c4.268 0 7.726-3.457 7.726-7.723s-3.459-7.723-7.726-7.723h-30.649c-5.091-12.959-11.125-25.11-18.052-36.223-8.482-13.607-17.959-25.13-28.187-34.421-17.848-6.587-36.947-10.593-56.844-11.562 26.936 3.602 52.185 22.497 71.915 54.15 5.421 8.698 10.255 18.095 14.483 28.056h-88.145v-82.272c-2.564-.102-5.137-.168-7.726-.168s-5.162.067-7.726.168v82.272h-88.145c4.229-9.961 9.062-19.358 14.483-28.056 19.73-31.653 44.979-50.548 71.915-54.15-19.897.969-38.995 4.975-56.844 11.561-10.227 9.292-19.705 20.815-28.186 34.421-6.927 11.113-12.961 23.264-18.053 36.223h-29.986c-4.267 0-7.726 3.457-7.726 7.723s3.459 7.723 7.726 7.723h24.492c-8.464 26.389-13.254 55.526-13.952 85.784h-59.31c-.102 2.563-.168 5.135-.168 7.723s.067 5.16.168 7.723h59.31c.697 30.222 5.476 59.327 13.922 85.691h-24.02c-4.267 0-7.726 3.457-7.726 7.723s3.459 7.723 7.726 7.723h29.509c5.099 12.994 11.145 25.177 18.089 36.317 8.481 13.607 17.959 25.129 28.186 34.421 17.848 6.587 36.946 10.592 56.843 11.561-26.936-3.602-52.184-22.497-71.914-54.15-5.438-8.725-10.285-18.154-14.523-28.149h88.185v82.366c2.564.102 5.137.168 7.726.168s5.162-.067 7.726-.168v-82.366h88.185c-4.238 9.996-9.085 19.424-14.523 28.149-19.73 31.653-44.978 50.548-71.914 54.15 19.897-.969 38.995-4.975 56.844-11.562 10.227-9.292 19.705-20.815 28.186-34.421 6.944-11.14 12.989-23.322 18.088-36.317h28.561c4.268 0 7.726-3.457 7.726-7.723s-3.459-7.723-7.726-7.723h-23.074c8.445-26.364 13.224-55.469 13.922-85.691h59.309c.102-2.563.168-5.135.168-7.723s-.066-5.16-.168-7.723h-59.309c-.698-30.256-5.488-59.393-13.952-85.782zm-125.776 186.921h-94.088c-8.929-26.051-13.998-55.229-14.732-85.691h108.819v85.691zm0-101.137h-108.82c.735-30.498 5.815-59.71 14.764-85.784h94.056zm109.54 101.137h-94.088v-85.691h108.82c-.734 30.462-5.803 59.64-14.732 85.691zm-94.088-101.137v-85.784h94.056c8.949 26.074 14.029 55.286 14.764 85.784z" fill="#78c2a4"/><g><ellipse cx="425.669" cy="86.407" fill="#bed8fb" rx="86.331" ry="86.292"/><path d="m474.735 15.405c9.643 13.927 15.297 30.824 15.297 49.044 0 47.658-38.652 86.292-86.331 86.292-18.228 0-35.132-5.651-49.066-15.29 15.58 22.503 41.583 37.248 71.034 37.248 47.679 0 86.331-38.634 86.331-86.292 0-29.438-14.751-55.428-37.265-71.002z" fill="#9dc6fb"/><g fill="#e6f7fe"><ellipse cx="425.669" cy="59.955" rx="26.464" ry="26.452"/><path d="m425.669 86.407c-16.366 0-31.187 6.601-41.949 17.284-3.589 3.562-4.127 9.192-1.195 13.311 9.599 13.49 25.357 22.31 43.144 22.31s33.545-8.819 43.144-22.31c2.931-4.12 2.394-9.749-1.195-13.311-10.762-10.682-25.583-17.284-41.949-17.284z"/></g></g><g><ellipse cx="86.331" cy="425.592" fill="#e27f86" rx="86.331" ry="86.292"/><path d="m135.397 354.59c9.643 13.927 15.297 30.824 15.297 49.044 0 47.658-38.652 86.292-86.331 86.292-18.228 0-35.132-5.651-49.066-15.29 15.58 22.503 41.583 37.248 71.034 37.248 47.679 0 86.331-38.634 86.331-86.292 0-29.438-14.752-55.428-37.265-71.002z" fill="#df646e"/><g fill="#e6f7fe"><ellipse cx="86.331" cy="399.14" rx="26.464" ry="26.452"/><path d="m86.331 425.592c-16.366 0-31.187 6.601-41.949 17.284-3.589 3.562-4.127 9.192-1.195 13.311 9.599 13.49 25.357 22.31 43.144 22.31s33.545-8.819 43.144-22.31c2.931-4.12 2.394-9.749-1.195-13.311-10.762-10.682-25.583-17.284-41.949-17.284z"/></g></g><g><ellipse cx="425.669" cy="425.592" fill="#e4936b" rx="86.331" ry="86.292"/><path d="m474.735 354.59c9.643 13.927 15.297 30.824 15.297 49.044 0 47.658-38.652 86.292-86.331 86.292-18.228 0-35.132-5.651-49.066-15.29 15.58 22.503 41.583 37.248 71.034 37.248 47.679 0 86.331-38.634 86.331-86.292 0-29.438-14.751-55.428-37.265-71.002z" fill="#e27d47"/><g fill="#e6f7fe"><ellipse cx="425.669" cy="399.14" rx="26.464" ry="26.452"/><path d="m425.669 425.592c-16.366 0-31.187 6.601-41.949 17.284-3.589 3.562-4.127 9.192-1.195 13.311 9.599 13.49 25.357 22.31 43.144 22.31s33.545-8.819 43.144-22.31c2.931-4.12 2.394-9.749-1.195-13.311-10.762-10.682-25.583-17.284-41.949-17.284z"/></g></g><g><ellipse cx="86.331" cy="86.407" fill="#ffe07d" rx="86.331" ry="86.292"/><path d="m135.397 15.405c9.643 13.927 15.297 30.824 15.297 49.044 0 47.658-38.652 86.292-86.331 86.292-18.228 0-35.132-5.651-49.066-15.29 15.58 22.503 41.583 37.248 71.034 37.248 47.679 0 86.331-38.634 86.331-86.292 0-29.438-14.752-55.428-37.265-71.002z" fill="#ffd064"/><g fill="#e6f7fe"><ellipse cx="86.331" cy="59.955" rx="26.464" ry="26.452"/><path d="m86.331 86.407c-16.366 0-31.187 6.601-41.949 17.284-3.589 3.562-4.127 9.192-1.195 13.311 9.599 13.49 25.357 22.31 43.144 22.31s33.545-8.819 43.144-22.31c2.931-4.12 2.394-9.749-1.195-13.311-10.762-10.682-25.583-17.284-41.949-17.284z"/></g></g></g></svg>