<svg id="Capa_1" enable-background="new 0 0 512 512" height="512" viewBox="0 0 512 512" width="512" xmlns="http://www.w3.org/2000/svg"><g><g><g><path d="m496.39 478.699h-208.13v-135.284c0-5.747 4.659-10.407 10.406-10.407h187.317c5.747 0 10.407 4.659 10.407 10.407z" fill="#bed8fb"/></g><g><path d="m485.984 333.008h-22.659c5.747 0 10.406 4.659 10.406 10.407v135.285h22.659v-135.285c0-5.748-4.659-10.407-10.406-10.407z" fill="#9dc6fb"/></g><g><path d="m501.594 512h-218.537c-5.747 0-10.406-4.659-10.406-10.406v-16.714c0-3.414 2.767-6.181 6.181-6.181h226.987c3.414 0 6.181 2.767 6.181 6.181v16.713c0 5.748-4.659 10.407-10.406 10.407z" fill="#efecef"/></g><g><path d="m490.025 478.699v22.894c0 5.747-4.659 10.406-10.406 10.406h21.975c5.747 0 10.406-4.659 10.406-10.406v-16.713c0-3.414-2.767-6.181-6.181-6.181z" fill="#dddaec"/></g></g><g><g><path d="m223.74 478.699h-208.13v-135.284c0-5.747 4.659-10.407 10.407-10.407h187.317c5.747 0 10.407 4.659 10.407 10.407v135.284z" fill="#bed8fb"/></g><g><path d="m213.333 333.008h-22.659c5.747 0 10.407 4.659 10.407 10.407v135.285h22.659v-135.285c0-5.748-4.659-10.407-10.407-10.407z" fill="#9dc6fb"/></g><g><path d="m228.943 512h-218.536c-5.748 0-10.407-4.659-10.407-10.406v-16.714c0-3.414 2.767-6.181 6.181-6.181h226.987c3.414 0 6.181 2.767 6.181 6.181v16.713c.001 5.748-4.659 10.407-10.406 10.407z" fill="#efecef"/></g><g><path d="m217.374 478.699v22.894c0 5.747-4.659 10.406-10.407 10.406h21.975c5.747 0 10.407-4.659 10.407-10.406v-16.713c0-3.414-2.767-6.181-6.181-6.181z" fill="#dddaec"/></g></g><g><g><path d="m360.065 145.691h-208.13v-135.284c0-5.748 4.659-10.407 10.406-10.407h187.317c5.747 0 10.406 4.659 10.406 10.407v135.284z" fill="#bed8fb"/></g><g><path d="m349.659 0h-22.659c5.747 0 10.407 4.659 10.407 10.407v135.285h22.659v-135.285c-.001-5.748-4.66-10.407-10.407-10.407z" fill="#9dc6fb"/></g><g><path d="m365.268 178.992h-218.536c-5.747 0-10.406-4.659-10.406-10.406v-16.713c0-3.414 2.767-6.181 6.181-6.181h226.987c3.414 0 6.181 2.767 6.181 6.181v16.713c0 5.747-4.659 10.406-10.407 10.406z" fill="#efecef"/></g><g><path d="m353.699 145.691v22.894c0 5.747-4.659 10.407-10.406 10.407h21.975c5.747 0 10.407-4.659 10.407-10.407v-16.713c0-3.414-2.767-6.181-6.181-6.181z" fill="#dddaec"/></g></g><g><path d="m306.984 307.208c-1.299 0-2.614-.337-3.813-1.047l-33.082-19.585c-3.564-2.11-4.743-6.711-2.633-10.274 2.11-3.564 6.709-4.745 10.274-2.634l33.082 19.585c3.564 2.11 4.743 6.711 2.633 10.274-1.4 2.367-3.897 3.681-6.461 3.681z" fill="#d3effd"/></g><g><path d="m256 256.216c-4.142 0-7.5-3.357-7.5-7.5v-34.342c0-4.143 3.358-7.5 7.5-7.5s7.5 3.357 7.5 7.5v34.342c0 4.142-3.358 7.5-7.5 7.5z" fill="#d3effd"/></g><g><path d="m205.016 307.208c-2.563 0-5.061-1.314-6.461-3.681-2.11-3.563-.932-8.164 2.633-10.274l33.082-19.585c3.565-2.108 8.165-.931 10.274 2.634 2.11 3.563.932 8.164-2.633 10.274l-33.082 19.585c-1.199.709-2.515 1.047-3.813 1.047z" fill="#d3effd"/></g><g><circle cx="256" cy="269.528" fill="#ffe07d" r="25.964"/></g></g></svg>