<svg id="Capa_1" enable-background="new 0 0 512 512" height="512" viewBox="0 0 512 512" width="512" xmlns="http://www.w3.org/2000/svg"><g><g><path d="m392.325 340.508c-4.143 0-7.5-3.358-7.5-7.5v-42.451h-112.175c-4.143 0-7.5-3.358-7.5-7.5s3.357-7.5 7.5-7.5h119.675c4.143 0 7.5 3.358 7.5 7.5v49.951c0 4.142-3.357 7.5-7.5 7.5z" fill="#efecef"/></g><g><path d="m119.675 340.508c-4.143 0-7.5-3.358-7.5-7.5v-49.951c0-4.142 3.357-7.5 7.5-7.5h119.675c4.143 0 7.5 3.358 7.5 7.5s-3.357 7.5-7.5 7.5h-112.175v42.451c0 4.142-3.358 7.5-7.5 7.5z" fill="#efecef"/></g><g><path d="m256 273.907c-4.143 0-7.5-3.358-7.5-7.5v-33.301c0-4.142 3.357-7.5 7.5-7.5s7.5 3.358 7.5 7.5v33.301c0 4.142-3.357 7.5-7.5 7.5z" fill="#efecef"/></g><g><circle cx="256" cy="283.057" fill="#ffe07d" r="21.634"/></g><g><path d="m337.97 150.444c1.313-3.165 3.92-5.615 7.161-6.729l20.469-7.036c4.16-1.43 6.953-5.343 6.953-9.742v-20.768c0-4.399-2.793-8.312-6.953-9.742l-20.469-7.036c-3.24-1.114-5.848-3.564-7.161-6.729l-.041-.098c-1.313-3.166-1.204-6.743.3-9.823l9.501-19.454c1.93-3.953 1.138-8.695-1.972-11.805l-14.685-14.685c-3.11-3.11-7.853-3.903-11.805-1.972l-19.454 9.501c-3.08 1.504-6.658 1.613-9.824.3l-.098-.041c-3.165-1.313-5.615-3.92-6.729-7.161l-7.036-20.469c-1.431-4.162-5.344-6.955-9.743-6.955h-20.768c-4.399 0-8.312 2.793-9.742 6.953l-7.036 20.469c-1.114 3.24-3.564 5.848-6.729 7.161l-.098.041c-3.166 1.313-6.744 1.204-9.824-.3l-19.454-9.501c-3.953-1.93-8.695-1.138-11.805 1.972l-14.686 14.685c-3.11 3.11-3.903 7.853-1.972 11.805l9.501 19.454c1.504 3.08 1.613 6.658.3 9.824l-.041.098c-1.313 3.165-3.92 5.615-7.161 6.729l-20.469 7.036c-4.16 1.43-6.953 5.343-6.953 9.742v20.768c0 4.399 2.793 8.312 6.953 9.742l20.469 7.036c3.24 1.114 5.848 3.564 7.161 6.729l.041.098c1.313 3.166 1.204 6.744-.3 9.824l-9.501 19.454c-1.93 3.953-1.138 8.695 1.972 11.805l14.685 14.685c3.11 3.11 7.853 3.903 11.805 1.972l19.454-9.501c3.08-1.504 6.658-1.613 9.824-.3l.211.088c3.093 1.283 5.487 3.831 6.576 6.998l7.076 20.585c1.43 4.16 5.343 6.953 9.742 6.953h20.768c4.399 0 8.312-2.793 9.742-6.953l7.076-20.585c1.089-3.167 3.483-5.715 6.576-6.998l.211-.088c3.166-1.313 6.744-1.204 9.824.3l19.454 9.501c3.953 1.93 8.695 1.138 11.805-1.972l14.685-14.685c3.11-3.11 3.903-7.853 1.972-11.805l-9.501-19.454c-1.504-3.08-1.613-6.657-.3-9.823zm-81.97 16.784c-27.987 0-50.675-22.688-50.675-50.675s22.688-50.675 50.675-50.675 50.675 22.688 50.675 50.675-22.688 50.675-50.675 50.675z" fill="#e4936b"/></g><g><path d="m337.97 150.444c1.313-3.165 3.92-5.615 7.161-6.729l20.469-7.036c4.16-1.43 6.953-5.343 6.953-9.742v-20.768c0-4.399-2.793-8.312-6.953-9.742l-20.469-7.036c-3.24-1.114-5.848-3.564-7.161-6.729l-.041-.098c-1.313-3.166-1.204-6.743.3-9.823l9.501-19.454c1.93-3.953 1.138-8.695-1.972-11.805l-14.686-14.686c-.335 22.587-9.726 48.874-26.956 73.857 2.223 6.728 3.097 14.07 2.23 21.722-2.75 24.261-22.865 43.296-47.238 44.762-8.399.505-16.379-1.055-23.507-4.194-25.025 13.647-50.271 19.372-70.904 16.007l-.426.872c-1.93 3.953-1.138 8.695 1.972 11.805l14.685 14.685c3.11 3.11 7.853 3.903 11.805 1.972l19.454-9.501c3.08-1.504 6.658-1.613 9.824-.3l.211.088c3.093 1.283 5.487 3.831 6.576 6.998l7.076 20.585c1.43 4.16 5.343 6.953 9.742 6.953h20.768c4.399 0 8.312-2.793 9.742-6.953l7.076-20.585c1.089-3.167 3.483-5.715 6.576-6.998l.211-.088c3.166-1.313 6.744-1.204 9.824.3l19.454 9.501c3.953 1.93 8.695 1.138 11.805-1.972l14.685-14.685c3.11-3.11 3.903-7.853 1.972-11.805l-9.501-19.454c-1.504-3.08-1.613-6.657-.3-9.823z" fill="#e27d47"/></g><g><circle cx="256" cy="116.553" fill="#b3e59f" r="50.675"/></g><g><path d="m306.675 116.553c0-2.627-.2-5.207-.586-7.726h-25.897c-.547-11.437-2.301-22.067-5.078-30.518-1.391-4.232-2.941-7.61-4.572-10.302-4.608-1.378-9.486-2.129-14.542-2.129s-9.935.75-14.542 2.129c-1.632 2.692-3.182 6.07-4.572 10.302-2.776 8.451-4.531 19.081-5.078 30.518h-25.898c-.385 2.519-.586 5.099-.586 7.726s.2 5.207.586 7.726h25.897c.547 11.437 2.301 22.067 5.078 30.518 1.391 4.232 2.941 7.611 4.572 10.302 4.608 1.378 9.486 2.129 14.542 2.129s9.935-.75 14.542-2.129c1.632-2.692 3.182-6.07 4.572-10.302 2.776-8.451 4.531-19.081 5.078-30.518h25.897c.387-2.519.587-5.099.587-7.726zm-50.675 42.48c-2.795-2.974-7.69-14.708-8.725-34.754h17.451c-1.036 20.046-5.931 31.781-8.726 34.754zm-8.725-50.207c1.035-20.046 5.931-31.78 8.725-34.754 2.795 2.974 7.69 14.708 8.725 34.754z" fill="#95d6a4"/></g><g><g><path d="m496.39 478.699h-208.13v-135.284c0-5.747 4.659-10.407 10.406-10.407h187.317c5.747 0 10.407 4.659 10.407 10.407z" fill="#bed8fb"/></g><g><path d="m485.984 333.008h-22.659c5.747 0 10.406 4.659 10.406 10.407v135.285h22.659v-135.285c0-5.748-4.659-10.407-10.406-10.407z" fill="#9dc6fb"/></g><g><path d="m501.594 512h-218.537c-5.747 0-10.406-4.659-10.406-10.406v-16.714c0-3.414 2.767-6.181 6.181-6.181h226.987c3.414 0 6.181 2.767 6.181 6.181v16.713c0 5.748-4.659 10.407-10.406 10.407z" fill="#efecef"/></g><g><path d="m490.025 478.699v22.894c0 5.747-4.659 10.406-10.406 10.406h21.975c5.747 0 10.406-4.659 10.406-10.406v-16.713c0-3.414-2.767-6.181-6.181-6.181z" fill="#dddaec"/></g></g><g><g><path d="m223.74 478.699h-208.13v-135.284c0-5.747 4.659-10.407 10.407-10.407h187.317c5.747 0 10.407 4.659 10.407 10.407v135.284z" fill="#bed8fb"/></g><g><path d="m213.333 333.008h-22.659c5.747 0 10.407 4.659 10.407 10.407v135.285h22.659v-135.285c0-5.748-4.659-10.407-10.407-10.407z" fill="#9dc6fb"/></g><g><path d="m228.943 512h-218.536c-5.748 0-10.407-4.659-10.407-10.406v-16.714c0-3.414 2.767-6.181 6.181-6.181h226.987c3.414 0 6.181 2.767 6.181 6.181v16.713c.001 5.748-4.659 10.407-10.406 10.407z" fill="#efecef"/></g><g><path d="m217.374 478.699v22.894c0 5.747-4.659 10.406-10.407 10.406h21.975c5.747 0 10.407-4.659 10.407-10.406v-16.713c0-3.414-2.767-6.181-6.181-6.181z" fill="#dddaec"/></g></g></g></svg>