<svg id="Capa_1" enable-background="new 0 0 512 512" height="512" viewBox="0 0 512 512" width="512" xmlns="http://www.w3.org/2000/svg"><g><g><g><path d="m151.935 339.252h-33.301v-47.87c0-18.362-14.939-33.301-33.301-33.301s-33.301 14.939-33.301 33.301v47.87h-33.3v-47.87c0-36.724 29.877-66.602 66.602-66.602s66.602 29.878 66.602 66.602v47.87z" fill="#e6f7fe"/></g><path d="m160.26 464.13h-149.853c-5.748 0-10.407-4.659-10.407-10.406v-104.065c0-5.747 4.659-10.406 10.407-10.406h149.853c5.747 0 10.407 4.659 10.407 10.406v104.065c0 5.747-4.659 10.406-10.407 10.406z" fill="#ffe07d"/><path d="m459.968 453.724h-289.301v-104.065h289.301c28.737 0 52.032 23.296 52.032 52.032 0 28.737-23.296 52.033-52.032 52.033z" fill="#e6f7fe"/><path d="m170.667 349.659h27.057v104.065h-27.057z" fill="#d3effd"/><path d="m160.26 339.252h-26.016c5.747 0 10.407 4.659 10.407 10.406v104.065c0 5.747-4.659 10.407-10.407 10.407h26.016c5.747 0 10.407-4.659 10.407-10.407v-104.064c0-5.748-4.66-10.407-10.407-10.407z" fill="#ffd064"/></g><g><g fill="#b3e59f"><path d="m421.324 132.302-11.772 11.772c-3.36 3.36-8.838 3.223-12.039-.289-35.046-38.452-85.507-62.614-141.513-62.614s-106.467 24.162-141.514 62.614c-3.201 3.512-8.679 3.649-12.039.289l-11.772-11.772c-3.133-3.133-3.292-8.196-.297-11.461 41.113-44.827 100.141-72.971 165.622-72.971s124.509 28.145 165.621 72.971c2.995 3.265 2.836 8.328-.297 11.461z"/><path d="m256 114.472c-47.124 0-89.506 20.719-118.513 53.532-2.925 3.308-2.795 8.315.328 11.438l11.788 11.788c3.394 3.394 8.976 3.247 12.124-.378 22.903-26.374 56.678-43.079 94.273-43.079s71.37 16.705 94.273 43.079c3.147 3.625 8.729 3.772 12.124.378l11.788-11.788c3.122-3.122 3.252-8.129.328-11.438-29.007-32.814-71.389-53.532-118.513-53.532z"/><path d="m256 181.073c-28.898 0-54.717 13.459-71.515 34.433-2.674 3.339-2.468 8.137.557 11.162l11.874 11.874c3.604 3.604 9.505 3.09 12.578-.975 10.646-14.081 27.531-23.193 46.506-23.193s35.86 9.112 46.506 23.193c3.073 4.065 8.974 4.579 12.578.975l11.874-11.874c3.025-3.025 3.231-7.823.557-11.162-16.798-20.974-42.617-34.433-71.515-34.433z"/></g><circle cx="256" cy="272.65" fill="#95d6a4" r="24.976"/><g fill="#95d6a4"><path d="m276.325 183.354c-8.269 11.703-17.407 22.217-27.113 31.419 2.228-.26 4.491-.399 6.788-.399 18.975 0 35.86 9.112 46.506 23.193 3.073 4.065 8.974 4.579 12.578.975l11.874-11.874c3.025-3.025 3.231-7.823.557-11.162-12.738-15.905-30.667-27.482-51.19-32.152z"/><path d="m421.621 120.841c-28.615-31.201-65.916-54.305-108.025-65.477 1.237 11.006 1.167 22.633-.236 34.596 32.676 10.281 61.608 29.088 84.153 53.825 3.201 3.512 8.679 3.649 12.039.289l11.772-11.772c3.133-3.133 3.292-8.196.297-11.461z"/><path d="m306.381 122.7c-3.181 10.34-7.304 20.727-12.381 30.993 22.04 7.058 41.439 20.076 56.273 37.158 3.147 3.625 8.729 3.772 12.124.378l11.788-11.788c3.122-3.122 3.252-8.129.328-11.438-18.17-20.554-41.588-36.36-68.132-45.303z"/></g></g><path d="m105.259 392.478c0-11.004-8.921-19.925-19.925-19.925s-19.925 8.921-19.925 19.925c0 8.264 5.032 15.352 12.198 18.37v19.981c0 4.267 3.459 7.726 7.726 7.726 4.268 0 7.726-3.459 7.726-7.726v-19.981c7.167-3.018 12.2-10.105 12.2-18.37z" fill="#d0cee7"/><g fill="#e27f86"><path d="m268.786 389.503c-2.135-3.696-6.861-4.962-10.554-2.828l-2.83 1.634v-3.268c0-4.267-3.459-7.726-7.726-7.726s-7.726 3.459-7.726 7.726v3.268l-2.83-1.634c-3.697-2.135-8.422-.868-10.554 2.828-2.134 3.695-.867 8.421 2.828 10.554l2.83 1.634-2.83 1.634c-3.695 2.133-4.962 6.859-2.828 10.554 1.432 2.479 4.028 3.865 6.698 3.865 1.311 0 2.64-.334 3.856-1.037l2.83-1.634v3.268c0 4.267 3.459 7.726 7.726 7.726s7.726-3.459 7.726-7.726v-3.268l2.83 1.634c1.217.703 2.545 1.037 3.856 1.037 2.67 0 5.268-1.386 6.698-3.865 2.134-3.696.867-8.421-2.828-10.554l-2.83-1.634 2.83-1.634c3.695-2.133 4.962-6.859 2.828-10.554z"/><path d="m331.224 389.503c-2.135-3.696-6.86-4.962-10.554-2.828l-2.83 1.634v-3.268c0-4.267-3.459-7.726-7.726-7.726s-7.726 3.459-7.726 7.726v3.268l-2.83-1.634c-3.697-2.135-8.422-.868-10.554 2.828-2.134 3.695-.867 8.421 2.828 10.554l2.83 1.634-2.83 1.634c-3.695 2.133-4.962 6.859-2.828 10.554 1.432 2.479 4.028 3.865 6.698 3.865 1.311 0 2.64-.334 3.856-1.037l2.83-1.634v3.268c0 4.267 3.459 7.726 7.726 7.726s7.726-3.459 7.726-7.726v-3.268l2.83 1.634c1.217.703 2.545 1.037 3.856 1.037 2.67 0 5.268-1.386 6.698-3.865 2.134-3.696.867-8.421-2.828-10.554l-2.83-1.634 2.83-1.634c3.696-2.133 4.962-6.859 2.828-10.554z"/><path d="m393.664 389.503c-2.133-3.696-6.861-4.962-10.554-2.828l-2.83 1.634v-3.268c0-4.267-3.459-7.726-7.726-7.726-4.268 0-7.726 3.459-7.726 7.726v3.268l-2.831-1.634c-3.697-2.135-8.422-.868-10.554 2.828-2.134 3.696-.867 8.421 2.828 10.554l2.83 1.634-2.83 1.634c-3.695 2.133-4.962 6.859-2.828 10.554 1.431 2.479 4.028 3.865 6.698 3.865 1.311 0 2.64-.334 3.856-1.037l2.831-1.634v3.269c0 4.267 3.459 7.726 7.726 7.726 4.268 0 7.726-3.459 7.726-7.726v-3.268l2.83 1.634c1.217.703 2.545 1.037 3.856 1.037 2.67 0 5.268-1.386 6.698-3.865 2.134-3.696.867-8.421-2.828-10.554l-2.83-1.634 2.83-1.634c3.695-2.134 4.962-6.86 2.828-10.555z"/><path d="m453.275 403.325-2.83-1.634 2.83-1.634c3.695-2.133 4.962-6.859 2.828-10.554-2.134-3.696-6.861-4.962-10.554-2.828l-2.83 1.634v-3.268c0-4.267-3.459-7.726-7.726-7.726s-7.726 3.459-7.726 7.726v3.268l-2.83-1.634c-3.698-2.135-8.422-.868-10.554 2.828-2.134 3.695-.867 8.421 2.828 10.554l2.83 1.634-2.83 1.634c-3.695 2.133-4.962 6.859-2.828 10.554 1.432 2.479 4.028 3.865 6.698 3.865 1.311 0 2.64-.334 3.856-1.037l2.83-1.634v3.268c0 4.267 3.459 7.726 7.726 7.726s7.726-3.459 7.726-7.726v-3.268l2.83 1.634c1.217.703 2.545 1.037 3.856 1.037 2.67 0 5.268-1.386 6.698-3.865 2.133-3.695.867-8.421-2.828-10.554z"/></g></g></svg>